<svg xmlns="http://www.w3.org/2000/svg" width="72" height="72" viewBox="0 0 72 72" fill="none">
    <path
        d="M36 72C55.8823 72 72 55.8823 72 36C72 16.1178 55.8823 0 36 0C16.1178 0 0 16.1178 0 36C0 55.8823 16.1178 72 36 72Z"
        fill="#CCEFDC"></path>
    <path
        d="M36 72C55.8823 72 72 55.8823 72 36C72 16.1178 55.8823 0 36 0C16.1178 0 0 16.1178 0 36C0 55.8823 16.1178 72 36 72Z"
        fill="#CCEFDC"></path>
    <path
        d="M16.3132 31.6098L8.34816 41.2038C7.12956 42.687 6.31236 44.46 5.99196 46.3626L5.25396 50.8122C5.25396 50.8446 5.23776 50.877 5.22156 50.8932L4.11816 52.7346C6.00096 56.313 8.46696 59.535 11.3902 62.2746C14.1712 58.0122 16.2484 54.9882 16.2484 54.9882L13.975 47.9826C14.7922 46.746 15.1864 45.2718 15.109 43.7814L14.9326 40.4766C14.9326 40.4442 14.9326 40.4118 14.9488 40.3794L17.1934 34.8822C17.6416 33.786 17.4346 32.4954 16.6318 31.6098C16.5364 31.5126 16.3906 31.5126 16.3114 31.6098H16.3132Z"
        fill="white"></path>
    <path
        d="M18.47 60.4962C16.4612 60.4962 14.8916 59.0472 14.8916 57.195V14.535C14.8916 12.6828 16.4612 11.2338 18.47 11.2338H22.0178V60.4962H18.47Z"
        fill="#C7712D"></path>
    <path
        d="M22.1204 60.5376C20.1116 60.5376 18.542 59.0868 18.542 57.231V14.5116C18.542 12.6558 20.1116 11.205 22.1204 11.205H53.687C55.6958 11.205 57.2654 12.6558 57.2654 14.5116V57.231C57.2654 59.0868 55.6958 60.5376 53.687 60.5376H22.1204Z"
        fill="#FDF4D9"></path>
    <path
        d="M40.7324 11.205H22.1204C20.1116 11.205 18.542 12.6558 18.542 14.5116V57.231C18.542 59.0868 20.1116 60.5376 22.1204 60.5376H40.7324V11.205Z"
        fill="#FCE9B3"></path>
    <path
        d="M32.0218 15.4962H24.0694C23.3596 15.4962 22.7842 16.0716 22.7842 16.7814V24.7338C22.7842 25.4436 23.3596 26.019 24.0694 26.019H32.0218C32.7316 26.019 33.307 25.4436 33.307 24.7338V16.7814C33.307 16.0716 32.7316 15.4962 32.0218 15.4962Z"
        fill="#EE6352"></path>
    <path
        d="M51.4296 19.0944H37.2852C36.5754 19.0944 36 19.6698 36 20.3796V21.024C36 21.7338 36.5754 22.3092 37.2852 22.3092H51.4296C52.1394 22.3092 52.7148 21.7338 52.7148 21.024V20.3796C52.7148 19.6698 52.1394 19.0944 51.4296 19.0944Z"
        fill="#EE6352"></path>
    <path
        d="M51.4296 34.2648H37.2852C36.5754 34.2648 36 34.8402 36 35.55V36.1944C36 36.9042 36.5754 37.4796 37.2852 37.4796H51.4296C52.1394 37.4796 52.7148 36.9042 52.7148 36.1944V35.55C52.7148 34.8402 52.1394 34.2648 51.4296 34.2648Z"
        fill="#F39D56"></path>
    <path
        d="M51.4296 49.4334H37.2852C36.5754 49.4334 36 50.0088 36 50.7186V51.363C36 52.0728 36.5754 52.6482 37.2852 52.6482H51.4296C52.1394 52.6482 52.7148 52.0728 52.7148 51.363V50.7186C52.7148 50.0088 52.1394 49.4334 51.4296 49.4334Z"
        fill="#F39D56"></path>
    <path
        d="M31.1993 16.7634L32.7977 18.3888L26.4617 24.6546L23.2793 21.4866L24.9047 19.8612L26.4617 21.4164L31.1993 16.7634Z"
        fill="white"></path>
    <path
        d="M32.0218 30.6108H24.0694C23.3596 30.6108 22.7842 31.1862 22.7842 31.896V39.8484C22.7842 40.5582 23.3596 41.1336 24.0694 41.1336H32.0218C32.7316 41.1336 33.307 40.5582 33.307 39.8484V31.896C33.307 31.1862 32.7316 30.6108 32.0218 30.6108Z"
        fill="#F39D56"></path>
    <path
        d="M32.0218 45.7992H24.0694C23.3596 45.7992 22.7842 46.3746 22.7842 47.0844V55.0368C22.7842 55.7466 23.3596 56.322 24.0694 56.322H32.0218C32.7316 56.322 33.307 55.7466 33.307 55.0368V47.0844C33.307 46.3746 32.7316 45.7992 32.0218 45.7992Z"
        fill="#F39D56"></path>
    <path
        d="M18.5417 57.0582V43.0542L14.8931 45.9846V57.0582C14.8931 59.0094 16.4627 60.5376 18.4715 60.5376H22.2191L21.9869 59.6124C20.7431 59.0742 18.5417 58.4874 18.5417 57.0582Z"
        fill="#9A5434"></path>
    <path
        d="M22.0771 60.4962H22.2193V37.4418L18.5005 40.4262V57.0024C18.5005 58.968 20.0845 60.4962 22.0789 60.4962H22.0771Z"
        fill="#FCE9B3"></path>
    <path
        d="M5.50424 52.4934C5.53844 52.4772 5.55644 52.443 5.57264 52.4268L8.09804 47.9556C9.17984 46.0458 10.7602 44.4384 12.6844 43.317L25.153 36.0306C25.2736 35.964 25.4446 36.0144 25.4968 36.1476C26.0296 37.404 25.7884 38.844 24.8614 39.8664L20.275 44.8902C20.257 44.9244 20.2408 44.9406 20.2228 44.991L19.1572 48.5928C18.6586 50.2686 17.611 51.7248 16.1692 52.7472C14.4682 53.9532 12.3568 54.4716 10.2778 54.1872L9.14384 54.036L5.50244 52.4952L5.50424 52.4934Z"
        fill="white"></path>
</svg>