<svg xmlns="http://www.w3.org/2000/svg" width="115" height="100" viewBox="0 0 115 100" fill="none">
    <path
        d="M57.5 100C85.1142 100 107.5 77.6142 107.5 50C107.5 22.3858 85.1142 0 57.5 0C29.8858 0 7.5 22.3858 7.5 50C7.5 77.6142 29.8858 100 57.5 100Z"
        fill="#CCEFDC"></path>
    <path
        d="M57.4998 80.8927C82.8457 80.8927 103.393 79.8534 103.393 78.5713C103.393 77.2892 82.8457 76.2499 57.4998 76.2499C32.1539 76.2499 11.6069 77.2892 11.6069 78.5713C11.6069 79.8534 32.1539 80.8927 57.4998 80.8927Z"
        fill="#99E0B9"></path>
    <path fill-rule="evenodd" clip-rule="evenodd"
        d="M82.5 76.4285H33.75C34.2857 69.6428 34.8214 63.0357 35.7143 56.9642C36.9643 49.1071 43.5714 43.2142 51.25 43.2142H65C72.8571 43.2142 79.4643 49.1071 80.5357 56.9642C81.7857 62.8571 82.1428 69.4642 82.5 76.4285Z"
        fill="#FDF4D9"></path>
    <path fill-rule="evenodd" clip-rule="evenodd"
        d="M80.8926 56.9642C79.6426 49.1071 73.0355 43.2142 65.3569 43.2142H51.6069C48.3927 43.2142 45.3569 44.2857 42.8569 45.8928C44.4641 49.2857 47.6784 52.4999 53.7498 55.7142C64.1069 61.2499 74.8212 62.3214 81.4284 59.1071C81.0712 58.5714 80.8926 57.6785 80.8926 56.9642Z"
        fill="#F9D468"></path>
    <path fill-rule="evenodd" clip-rule="evenodd"
        d="M28.0358 68.5714C26.7858 65.5356 30.0001 61.2499 35.3573 58.9285C40.7144 56.6071 45.893 57.3214 47.143 60.3571C48.393 63.3928 45.1787 67.6785 39.8216 69.9999C34.643 72.3214 29.2858 71.6071 28.0358 68.5714Z"
        fill="#00B14F"></path>
    <path fill-rule="evenodd" clip-rule="evenodd"
        d="M32.4998 66.7857C31.6069 64.6428 33.7498 61.6071 37.3212 59.9999C40.8926 58.3928 44.464 59.1071 45.3569 61.2499C46.2498 63.3928 44.1069 66.4285 40.5355 68.0357C37.1426 69.4642 33.3926 68.9285 32.4998 66.7857Z"
        fill="#CCEFDC"></path>
    <path
        d="M76.0714 73.0357C83.2708 73.0357 89.1071 70.5572 89.1071 67.4999C89.1071 64.4427 83.2708 61.9642 76.0714 61.9642C68.8719 61.9642 63.0356 64.4427 63.0356 67.4999C63.0356 70.5572 68.8719 73.0357 76.0714 73.0357Z"
        fill="#F18275"></path>
    <path fill-rule="evenodd" clip-rule="evenodd"
        d="M8.92864 67.8572H58.5715V78.3929C58.5715 78.3929 30.1786 76.7858 8.75007 69.4643C8.39293 69.2858 8.21436 68.9286 8.21436 68.5715C8.21436 68.0358 8.5715 67.8572 8.92864 67.8572Z"
        fill="#006A2F"></path>
    <path fill-rule="evenodd" clip-rule="evenodd"
        d="M107.322 67.8572H57.6787V78.3929C57.6787 78.3929 86.0716 76.7858 107.5 69.4643C107.857 69.2858 108.036 68.9286 108.036 68.5715C108.036 68.0358 107.679 67.8572 107.322 67.8572Z"
        fill="#006A2F"></path>
    <path fill-rule="evenodd" clip-rule="evenodd"
        d="M79.4645 79.9999H36.7859C36.2502 79.9999 35.7145 79.6428 35.5359 79.1071L33.3931 75.3571H83.2145L81.0716 79.1071C80.5359 79.6428 80.0002 79.9999 79.4645 79.9999Z"
        fill="#008E3F"></path>
    <path fill-rule="evenodd" clip-rule="evenodd"
        d="M86.2501 46.0714C83.393 54.4642 69.2858 57.1428 55.1787 51.9642C40.893 46.7857 41.0715 39.2857 41.0715 30.1785C40.893 15.5357 51.6073 15.8928 65.893 21.25C79.8215 26.4285 89.1073 37.6785 86.2501 46.0714Z"
        fill="white"></path>
    <path
        d="M69.8472 37.9551C71.7801 33.3117 68.6233 27.5811 62.7962 25.1554C56.9691 22.7298 50.6784 24.5277 48.7455 29.1711C46.8126 33.8146 49.9694 39.5452 55.7965 41.9709C61.6235 44.3965 67.9143 42.5986 69.8472 37.9551Z"
        fill="#FADF8E"></path>
    <path fill-rule="evenodd" clip-rule="evenodd"
        d="M57.1426 39.4641C51.2498 37.3213 47.6783 32.1427 49.1069 28.2141C50.5355 24.2856 56.4283 22.6784 62.3212 24.9998C68.214 27.1427 71.7855 32.3213 70.3569 36.2498C68.9283 40.357 63.0355 41.7856 57.1426 39.4641Z"
        fill="#F39D56"></path>
    <path fill-rule="evenodd" clip-rule="evenodd"
        d="M59.8213 31.9643C56.607 30.7143 54.2856 28.3928 54.9999 26.6071C55.5356 24.8214 58.7499 24.4643 62.1427 25.7143C65.357 26.9643 67.6785 29.2857 66.9642 31.0714C66.2499 32.8571 63.2142 33.2143 59.8213 31.9643Z"
        fill="#F7C942"></path>
    <path fill-rule="evenodd" clip-rule="evenodd"
        d="M29.4644 54.2857C26.6072 53.9286 25.0001 49.4643 25.7144 44.4643C26.4287 39.4643 29.2858 35.5357 31.9644 36.0714C34.8215 36.4286 36.4287 40.8929 35.7144 45.8929C35.1787 50.8929 32.3215 54.6429 29.4644 54.2857Z"
        fill="#00B14F"></path>
    <path fill-rule="evenodd" clip-rule="evenodd"
        d="M30.1785 49.6427C28.2142 49.2856 26.9642 46.4285 27.4999 43.2142C27.8571 39.9999 29.8213 37.4999 31.7856 37.857C33.7499 38.2142 34.9999 41.0713 34.4642 44.2856C34.1071 47.4999 32.1428 49.9999 30.1785 49.6427Z"
        fill="#CCEFDC"></path>
</svg>